<svg xmlns="http://www.w3.org/2000/svg" aria-hidden="true" style="position:absolute;width:0;height:0;overflow:hidden">
  <defs>
  <!-- social medias -->
  <symbol id="facebook" viewBox="0 0 32 32">
      <path d="M18.914 32V17.6h4.372L24 11.2h-5.086V8.083c0-1.648.042-3.283 2.345-3.283h2.332V.224c0-.069-2.003-.224-4.03-.224-4.233 0-6.884 2.651-6.884 7.52v3.68H8v6.4h4.677V32h6.237z"/>
    </symbol>
    <symbol id="google-plus" viewBox="0 0 32 32">
      <path d="M10.4 23.867c-4.267 0-7.867-3.467-7.867-7.867S6 8.133 10.4 8.133c2 0 3.867.8 5.333 2L13.466 12.4c-.933-.667-2-1.067-3.067-1.067-2.667 0-4.667 2.133-4.667 4.667s2.133 4.667 4.667 4.667c2.133 0 3.733-1.333 4.267-3.067h-4.267v-2.933h7.333c.667 3.067-.8 9.2-7.333 9.2zm16.133-6.534v2.8h-2.8v-2.8h-2.8v-2.667h2.8v-2.8h2.8v2.8h2.8v2.667h-2.8z"/>
    </symbol>
    <symbol id="instagram" viewBox="0 0 32 32">
      <path d="M16 24a8 8 0 1 1 0-16 8 8 0 0 1 0 16zm0-2.667a5.333 5.333 0 1 0 0-10.667 5.333 5.333 0 0 0 0 10.667zM24 6.667a1.333 1.333 0 1 0 0 2.667 1.333 1.333 0 0 0 0-2.667z"/>
      <path d="M2.205 5.701a8.003 8.003 0 0 1 3.496-3.496c1.711-.872 3.951-.872 8.432-.872h3.733c4.48 0 6.721 0 8.432.872a8.003 8.003 0 0 1 3.496 3.496c.872 1.711.872 3.951.872 8.432v3.733c0 4.48 0 6.721-.872 8.432a8.003 8.003 0 0 1-3.496 3.496c-1.711.872-3.951.872-8.432.872h-3.733c-4.48 0-6.721 0-8.432-.872a8.003 8.003 0 0 1-3.496-3.496c-.872-1.711-.872-3.951-.872-8.432v-3.733c0-4.48 0-6.721.872-8.432zM17.867 4h-3.733c-2.284 0-3.837.002-5.037.1-1.169.096-1.767.269-2.184.481a5.331 5.331 0 0 0-2.331 2.331c-.213.417-.386 1.015-.481 2.184-.098 1.2-.1 2.753-.1 5.037v3.733c0 2.284.002 3.837.1 5.037.096 1.169.269 1.767.481 2.184a5.337 5.337 0 0 0 2.331 2.331c.417.213 1.015.386 2.184.481 1.2.098 2.753.1 5.037.1h3.733c2.284 0 3.837-.002 5.037-.1 1.169-.095 1.767-.269 2.184-.481a5.337 5.337 0 0 0 2.331-2.331c.213-.417.386-1.015.481-2.184.098-1.2.1-2.753.1-5.037v-3.733c0-2.284-.002-3.837-.1-5.037-.095-1.169-.269-1.767-.481-2.184a5.331 5.331 0 0 0-2.331-2.331c-.417-.213-1.015-.386-2.184-.481-1.2-.098-2.753-.1-5.037-.1z"/>
    </symbol>
    <symbol id="linkedin" viewBox="0 0 32 32">
      <path d="M7.282 31.264V10.666H.436v20.598h6.846zM3.859 7.855c2.386 0 3.873-1.583 3.873-3.56C7.687 2.274 6.245.736 3.904.736S.031 2.274.031 4.295c0 1.977 1.486 3.56 3.783 3.56h.045zm7.211 23.409s.09-18.665 0-20.598h6.847v2.987h-.045c.9-1.406 2.522-3.471 6.215-3.471 4.505 0 7.882 2.944 7.882 9.271v11.811h-6.846V20.245c0-2.769-.991-4.658-3.469-4.658-1.891 0-3.018 1.274-3.513 2.505-.181.438-.225 1.054-.225 1.669v11.503h-6.847z"/>
    </symbol>
    <symbol id="pinterest" viewBox="0 0 32 32">
      <path d="M13.79 21.155c-.839 4.397-1.863 8.612-4.897 10.814-.937-6.646 1.375-11.637 2.448-16.936-1.831-3.081.22-9.281 4.08-7.754 4.75 1.879-4.113 11.455 1.836 12.651 6.213 1.248 8.749-10.78 4.897-14.691C16.588-.409 5.951 5.11 7.259 13.197c.318 1.977 2.36 2.576.816 5.305-3.563-.791-4.625-3.6-4.489-7.346C3.807 5.024 9.095.732 14.4.138 21.109-.613 27.405 2.6 28.274 8.912c.979 7.124-3.028 14.838-10.202 14.283-1.945-.151-2.761-1.115-4.285-2.041z"/>
    </symbol>
    <symbol id="twitter" viewBox="0 0 32 32">
      <path d="M10.064 28.8c12.075 0 18.68-9.85 18.68-18.391 0-.28 0-.559-.019-.836A13.216 13.216 0 0 0 32 6.227a13.265 13.265 0 0 1-3.77 1.018 6.509 6.509 0 0 0 2.886-3.576 13.281 13.281 0 0 1-4.17 1.569c-2.486-2.602-6.645-2.728-9.29-.28a6.408 6.408 0 0 0-1.899 6.177C10.479 10.874 5.56 8.419 2.226 4.382.484 7.336 1.375 11.113 4.26 13.01a6.596 6.596 0 0 1-2.981-.808v.082c.002 3.076 2.205 5.726 5.267 6.336a6.621 6.621 0 0 1-2.963.11c.859 2.634 3.325 4.438 6.133 4.49a13.3 13.3 0 0 1-9.717 2.679 18.8 18.8 0 0 0 10.064 2.898z"/>
  </symbol>

    <!-- burger -->
  <symbol id="burger" viewBox="0 0 32 32">
      <path stroke-linecap="round" stroke-linejoin="round" stroke-width="2" d="M28 13.333H4M28 8H4M28 18.667H4M28 24H4"/>
    </symbol>
     <symbol id="close" viewBox="0 0 32 32">
      <path stroke-linecap="round" stroke-linejoin="round" stroke-width="2.4" d="M24 8 8 24M8 8l16 16"/>
  </symbol>

    <!-- others -->
    <symbol id="envelope" viewBox="0 0 32 32">
      <path d="M23.5 8.32H8.38a2.85 2.85 0 0 0-2.84 2.84v9.64a2.85 2.85 0 0 0 2.84 2.84H23.5a2.85 2.85 0 0 0 2.84-2.84v-9.64c0-1.56-1.24-2.84-2.84-2.84zM8.38 10H23.5c.64 0 1.16.52 1.16 1.16v.4l-8.04 5.6c-.36.24-1.04.24-1.4 0l-8.04-5.6v-.4c.04-.64.56-1.16 1.2-1.16zM23.5 22H8.38c-.64 0-1.16-.52-1.16-1.16V13.6l7.08 4.92c.48.32 1.08.48 1.68.48s1.2-.16 1.68-.48l7.04-4.92v7.2c0 .68-.56 1.2-1.2 1.2z"/>
    </symbol>

    <symbol id="mobile" viewBox="0 0 32 32">
      <path d="M21.333 4.333H10.666a2.344 2.344 0 0 0-2.333 2.333v18.667a2.344 2.344 0 0 0 2.333 2.333h10.667a2.344 2.344 0 0 0 2.333-2.333V6.666a2.344 2.344 0 0 0-2.333-2.333zm.334 21a.33.33 0 0 1-.333.333H10.667a.33.33 0 0 1-.333-.333V6.666a.33.33 0 0 1 .333-.333h10.667a.33.33 0 0 1 .333.333v18.667zm-4.334-4c0 .733-.6 1.333-1.333 1.333s-1.333-.6-1.333-1.333S15.267 20 16 20s1.333.6 1.333 1.333z"/>
    </symbol>

    <symbol id="chevron-down" viewBox="0 0 32 32">
<path stroke-linejoin="round" stroke-linecap="round" stroke-miterlimit="4" stroke-width="2.88" d="M8 12l8 8 8-8"></path>
</symbol>

    <symbol id="quotes" viewBox="0 0 32 32">
<path d="M6.111 23.095c-1.373-1.459-2.111-3.095-2.111-5.747 0-4.667 3.276-8.849 8.040-10.917l1.191 1.837c-4.447 2.405-5.316 5.527-5.663 7.495 0.716-0.371 1.653-0.5 2.572-0.415 2.405 0.223 4.301 2.197 4.301 4.652 0 2.577-2.089 4.667-4.667 4.667v0c-1.431 0-2.799-0.653-3.664-1.572zM19.444 23.095c-1.373-1.459-2.111-3.095-2.111-5.747 0-4.667 3.276-8.849 8.040-10.917l1.191 1.837c-4.447 2.405-5.316 5.527-5.663 7.495 0.716-0.371 1.653-0.5 2.572-0.415 2.405 0.223 4.301 2.197 4.301 4.652 0 2.577-2.089 4.667-4.667 4.667v0c-1.431 0-2.799-0.653-3.664-1.572z"></path>
</symbol>

<symbol id="filter" viewBox="0 0 32 32">
  <path d="M27.867 5.333h-13.4c-0.601-1.552-2.070-2.639-3.797-2.667l-0.003-0c-1.716 0.017-3.172 1.112-3.725 2.639l-0.009 0.028h-2.8c-0.020-0.001-0.044-0.002-0.068-0.002-0.75 0-1.363 0.59-1.398 1.332l-0 0.003c0.036 0.745 0.648 1.335 1.398 1.335 0.024 0 0.048-0.001 0.072-0.002l-0.003 0h2.8c0.561 1.555 2.017 2.65 3.731 2.667l0.002 0c1.73-0.028 3.199-1.114 3.79-2.638l0.010-0.028h13.4c0.020 0.001 0.044 0.002 0.068 0.002 0.75 0 1.363-0.59 1.398-1.332l0-0.003c-0.036-0.745-0.648-1.335-1.398-1.335-0.024 0-0.048 0.001-0.072 0.002l0.003-0zM10.667 8c-0.736 0-1.333-0.597-1.333-1.333s0.597-1.333 1.333-1.333c0.736 0 1.333 0.597 1.333 1.333v0c0 0.736-0.597 1.333-1.333 1.333v0z"></path>
  <path d="M27.867 14.667h-2.733c-0.601-1.552-2.070-2.639-3.797-2.667l-0.003-0c-1.716 0.017-3.172 1.112-3.725 2.639l-0.009 0.028h-13.467c-0.736 0-1.333 0.597-1.333 1.333s0.597 1.333 1.333 1.333v0h13.467c0.561 1.555 2.017 2.65 3.731 2.667l0.002 0c1.73-0.028 3.199-1.114 3.79-2.638l0.010-0.028h2.733c0.736 0 1.333-0.597 1.333-1.333s-0.597-1.333-1.333-1.333v0zM21.333 17.333c-0.736 0-1.333-0.597-1.333-1.333s0.597-1.333 1.333-1.333c0.736 0 1.333 0.597 1.333 1.333v0c0 0.736-0.597 1.333-1.333 1.333v0z"></path>
  <path d="M27.867 24h-11.4c-0.601-1.552-2.070-2.639-3.797-2.667l-0.003-0c-1.716 0.017-3.172 1.112-3.725 2.639l-0.009 0.028h-4.8c-0.736 0-1.333 0.597-1.333 1.333s0.597 1.333 1.333 1.333v0h4.8c0.561 1.555 2.017 2.65 3.731 2.667l0.002 0c1.73-0.028 3.199-1.114 3.79-2.638l0.010-0.028h11.4c0.736 0 1.333-0.597 1.333-1.333s-0.597-1.333-1.333-1.333v0zM12.667 26.667c-0.736 0-1.333-0.597-1.333-1.333s0.597-1.333 1.333-1.333c0.736 0 1.333 0.597 1.333 1.333v0c0 0.736-0.597 1.333-1.333 1.333v0z"></path>
</symbol>

<symbol id="search" viewBox="0 0 32 32">
<path stroke-linejoin="round" stroke-linecap="round" stroke-miterlimit="4" stroke-width="2.88" d="M14.667 25.333c5.891 0 10.667-4.776 10.667-10.667s-4.776-10.667-10.667-10.667c-5.891 0-10.667 4.776-10.667 10.667s4.776 10.667 10.667 10.667z"></path>
<path stroke-linejoin="round" stroke-linecap="round" stroke-miterlimit="4" stroke-width="2.88" d="M28 28l-5.8-5.8"></path>
</symbol>

<symbol id="star" viewBox="0 0 32 32">
<path stroke-linejoin="miter" stroke-linecap="butt" stroke-miterlimit="10" stroke-width="1.28" d="M16 2.274l3.645 9.452 10.115 0.545-7.863 6.387 2.607 9.789-8.504-5.503-8.504 5.503 2.607-9.789-7.863-6.387 10.115-0.545z"></path>
</symbol>

<symbol id="play" viewBox="0 0 32 32">
<path d="M16 0c-8.837 0-16 7.163-16 16s7.163 16 16 16c8.837 0 16-7.163 16-16v0c-0.010-8.833-7.167-15.99-15.999-16h-0.001zM16 29.333c-7.364 0-13.333-5.97-13.333-13.333s5.97-13.333 13.333-13.333c7.364 0 13.333 5.97 13.333 13.333v0c-0.009 7.36-5.973 13.325-13.332 13.333h-0.001z"></path>
<path d="M21.299 14.25l-6.023-4.204c-0.34-0.24-0.764-0.384-1.22-0.384-1.178 0-2.134 0.955-2.134 2.134v0 8.408c0 0 0 0.001 0 0.002 0 1.178 0.955 2.133 2.133 2.133 0.457 0 0.881-0.144 1.228-0.389l-0.007 0.005 6.023-4.205c0.555-0.391 0.913-1.028 0.913-1.749s-0.358-1.359-0.906-1.745l-0.007-0.005z"></path>
</symbol>

<symbol id="calendar" viewBox="0 0 32 32">
  <path d="M24.8 27h-17.6c-1.2 0-2.2-1-2.2-2.2v-16.15c0-1.2 0.8-2.2 1.85-2.2h1.1v1.45h-1.1c-0.15 0-0.35 0.3-0.35 0.75v16.15c0 0.4 0.35 0.75 0.75 0.75h17.6c0.4 0 0.75-0.35 0.75-0.75v-16.15c0-0.45-0.25-0.75-0.35-0.75h-1.1v-1.45h1.1c1 0 1.85 1 1.85 2.2v16.15c-0.1 1.2-1.1 2.2-2.3 2.2z"></path>
  <path d="M10.15 9.4c-0.4 0-0.75-0.35-0.75-0.75v-2.95c0-0.4 0.35-0.75 0.75-0.75s0.75 0.35 0.75 0.75v2.95c-0.050 0.4-0.35 0.75-0.75 0.75z"></path>
  <path d="M21.85 9.4c-0.4 0-0.75-0.35-0.75-0.75v-2.95c0-0.4 0.35-0.75 0.75-0.75s0.75 0.35 0.75 0.75v2.95c0 0.4-0.35 0.75-0.75 0.75z"></path>
  <path d="M12.35 6.45h7.3v1.5h-7.3z"></path>
  <path d="M6.45 10.85h19.1v1.5h-19.1z"></path>
  <path d="M22.6 13.8h1.45v1.45h-1.45z"></path>
  <path d="M19.65 13.8h1.5v1.45h-1.5z"></path>
  <path d="M16.75 13.8h1.45v1.45h-1.45z"></path>
  <path d="M13.8 13.8h1.45v1.45h-1.45z"></path>
  <path d="M10.85 13.8h1.5v1.45h-1.5z"></path>
  <path d="M22.6 16.75h1.45v1.45h-1.45z"></path>
  <path d="M19.65 16.75h1.5v1.45h-1.5z"></path>
  <path d="M16.75 16.75h1.45v1.45h-1.45z"></path>
  <path d="M13.8 16.75h1.45v1.45h-1.45z"></path>
  <path d="M10.85 16.75h1.5v1.45h-1.5z"></path>
  <path d="M7.95 16.75h1.45v1.45h-1.45z"></path>
  <path d="M22.6 19.65h1.45v1.5h-1.45z"></path>
  <path d="M19.65 19.65h1.5v1.5h-1.5z"></path>
  <path d="M16.75 19.65h1.45v1.5h-1.45z"></path>
  <path d="M13.8 19.65h1.45v1.5h-1.45z"></path>
  <path d="M10.85 19.65h1.5v1.5h-1.5z"></path>
  <path d="M7.95 19.65h1.45v1.5h-1.45z"></path>
  <path d="M19.65 22.6h1.5v1.45h-1.5z"></path>
  <path d="M16.75 22.6h1.45v1.45h-1.45z"></path>
  <path d="M13.8 22.6h1.45v1.45h-1.45z"></path>
  <path d="M10.85 22.6h1.5v1.45h-1.5z"></path>
  <path d="M7.95 22.6h1.45v1.45h-1.45z"></path>
</symbol>

<symbol id="clock" viewBox="0 0 32 32">
<path d="M16 5.333c-5.891 0-10.667 4.776-10.667 10.667s4.776 10.667 10.667 10.667c5.891 0 10.667-4.776 10.667-10.667s-4.776-10.667-10.667-10.667zM2.667 16c0-7.364 5.97-13.333 13.333-13.333s13.333 5.97 13.333 13.333c0 7.364-5.97 13.333-13.333 13.333s-13.333-5.97-13.333-13.333zM15.771 9.010c0.736 0 1.333 0.597 1.333 1.333v6.623l4.703 1.788c0.688 0.262 1.034 1.032 0.773 1.72s-1.032 1.034-1.72 0.773l-5.562-2.114c-0.517-0.197-0.86-0.693-0.86-1.246v-7.542c0-0.736 0.597-1.333 1.333-1.333z"></path>
</symbol>

<symbol id="heart" viewBox="0 0 32 32">
<path stroke-linejoin="round" stroke-linecap="round" stroke-miterlimit="4" stroke-width="2.6667" d="M27.787 6.147c-0.681-0.681-1.49-1.222-2.38-1.591s-1.844-0.559-2.807-0.559c-0.963 0-1.917 0.19-2.807 0.559s-1.698 0.909-2.379 1.591l-1.413 1.413-1.413-1.413c-1.376-1.376-3.241-2.148-5.187-2.148s-3.811 0.773-5.187 2.148c-1.376 1.376-2.148 3.241-2.148 5.187s0.773 3.811 2.148 5.187l11.787 11.787 11.787-11.787c0.681-0.681 1.222-1.49 1.591-2.38s0.558-1.844 0.558-2.807-0.19-1.917-0.558-2.807c-0.369-0.89-0.909-1.699-1.591-2.38z"></path>
</symbol>

<symbol id="downloaded" viewBox="0 0 32 32">
<path d="M26 2h-20l-6 6v21c0 0.552 0.448 1 1 1h30c0.552 0 1-0.448 1-1v-21l-6-6zM16 26l-10-8h6v-6h8v6h6l-10 8zM4.828 6l2-2h18.343l2 2h-22.343z"></path>
</symbol>

<symbol id="folder" viewBox="0 0 32 32">
<path d="M26 30l6-16h-26l-6 16zM4 12l-4 18v-26h9l4 4h13v4z"></path>
</symbol>

<symbol id="bell" viewBox="0 0 32 32">
<path d="M32.047 25c0-9-8-7-8-14 0-0.58-0.056-1.076-0.158-1.498-0.526-3.532-2.88-6.366-5.93-7.23 0.027-0.123 0.041-0.251 0.041-0.382 0-1.040-0.9-1.891-2-1.891s-2 0.851-2 1.891c0 0.131 0.014 0.258 0.041 0.382-3.421 0.969-5.966 4.416-6.039 8.545-0.001 0.060-0.002 0.121-0.002 0.183 0 7-8 5-8 14 0 2.382 5.331 4.375 12.468 4.878 0.673 1.263 2.002 2.122 3.532 2.122s2.86-0.86 3.532-2.122c7.137-0.503 12.468-2.495 12.468-4.878 0-0.007-0.001-0.014-0.001-0.021l0.048 0.021zM25.82 26.691c-1.695 0.452-3.692 0.777-5.837 0.958-0.178-2.044-1.893-3.648-3.984-3.648s-3.805 1.604-3.984 3.648c-2.144-0.18-4.142-0.506-5.837-0.958-2.332-0.622-3.447-1.318-3.855-1.691 0.408-0.372 1.523-1.068 3.855-1.691 2.712-0.724 6.199-1.122 9.82-1.122s7.109 0.398 9.82 1.122c2.332 0.622 3.447 1.318 3.855 1.691-0.408 0.372-1.523 1.068-3.855 1.691z"></path>
</symbol>

<symbol id="flag" viewBox="0 0 32 32">
<path d="M0 0h4v32h-4v-32z"></path>
<path d="M26 20.094c2.582 0 4.83-0.625 6-1.547v-16c-1.17 0.922-3.418 1.547-6 1.547s-4.83-0.625-6-1.547v16c1.17 0.922 3.418 1.547 6 1.547z"></path>
<path d="M19 1.016c-1.466-0.623-3.61-1.016-6-1.016-3.012 0-5.635 0.625-7 1.547v16c1.365-0.922 3.988-1.547 7-1.547 2.39 0 4.534 0.393 6 1.016v-16z"></path>
</symbol>
    
  </defs>
</svg>