<svg xmlns="http://www.w3.org/2000/svg" aria-hidden="true" style="position:absolute;width:0;height:0;overflow:hidden">
  <defs>
  <!-- social medias -->
  <symbol id="facebook" viewBox="0 0 32 32">
      <path d="M18.914 32V17.6h4.372L24 11.2h-5.086V8.083c0-1.648.042-3.283 2.345-3.283h2.332V.224c0-.069-2.003-.224-4.03-.224-4.233 0-6.884 2.651-6.884 7.52v3.68H8v6.4h4.677V32h6.237z"/>
    </symbol>
    <symbol id="google-plus" viewBox="0 0 32 32">
      <path d="M10.4 23.867c-4.267 0-7.867-3.467-7.867-7.867S6 8.133 10.4 8.133c2 0 3.867.8 5.333 2L13.466 12.4c-.933-.667-2-1.067-3.067-1.067-2.667 0-4.667 2.133-4.667 4.667s2.133 4.667 4.667 4.667c2.133 0 3.733-1.333 4.267-3.067h-4.267v-2.933h7.333c.667 3.067-.8 9.2-7.333 9.2zm16.133-6.534v2.8h-2.8v-2.8h-2.8v-2.667h2.8v-2.8h2.8v2.8h2.8v2.667h-2.8z"/>
    </symbol>
    <symbol id="instagram" viewBox="0 0 32 32">
      <path d="M16 24a8 8 0 1 1 0-16 8 8 0 0 1 0 16zm0-2.667a5.333 5.333 0 1 0 0-10.667 5.333 5.333 0 0 0 0 10.667zM24 6.667a1.333 1.333 0 1 0 0 2.667 1.333 1.333 0 0 0 0-2.667z"/>
      <path d="M2.205 5.701a8.003 8.003 0 0 1 3.496-3.496c1.711-.872 3.951-.872 8.432-.872h3.733c4.48 0 6.721 0 8.432.872a8.003 8.003 0 0 1 3.496 3.496c.872 1.711.872 3.951.872 8.432v3.733c0 4.48 0 6.721-.872 8.432a8.003 8.003 0 0 1-3.496 3.496c-1.711.872-3.951.872-8.432.872h-3.733c-4.48 0-6.721 0-8.432-.872a8.003 8.003 0 0 1-3.496-3.496c-.872-1.711-.872-3.951-.872-8.432v-3.733c0-4.48 0-6.721.872-8.432zM17.867 4h-3.733c-2.284 0-3.837.002-5.037.1-1.169.096-1.767.269-2.184.481a5.331 5.331 0 0 0-2.331 2.331c-.213.417-.386 1.015-.481 2.184-.098 1.2-.1 2.753-.1 5.037v3.733c0 2.284.002 3.837.1 5.037.096 1.169.269 1.767.481 2.184a5.337 5.337 0 0 0 2.331 2.331c.417.213 1.015.386 2.184.481 1.2.098 2.753.1 5.037.1h3.733c2.284 0 3.837-.002 5.037-.1 1.169-.095 1.767-.269 2.184-.481a5.337 5.337 0 0 0 2.331-2.331c.213-.417.386-1.015.481-2.184.098-1.2.1-2.753.1-5.037v-3.733c0-2.284-.002-3.837-.1-5.037-.095-1.169-.269-1.767-.481-2.184a5.331 5.331 0 0 0-2.331-2.331c-.417-.213-1.015-.386-2.184-.481-1.2-.098-2.753-.1-5.037-.1z"/>
    </symbol>
    <symbol id="linkedin" viewBox="0 0 32 32">
      <path d="M7.282 31.264V10.666H.436v20.598h6.846zM3.859 7.855c2.386 0 3.873-1.583 3.873-3.56C7.687 2.274 6.245.736 3.904.736S.031 2.274.031 4.295c0 1.977 1.486 3.56 3.783 3.56h.045zm7.211 23.409s.09-18.665 0-20.598h6.847v2.987h-.045c.9-1.406 2.522-3.471 6.215-3.471 4.505 0 7.882 2.944 7.882 9.271v11.811h-6.846V20.245c0-2.769-.991-4.658-3.469-4.658-1.891 0-3.018 1.274-3.513 2.505-.181.438-.225 1.054-.225 1.669v11.503h-6.847z"/>
    </symbol>
    <symbol id="pinterest" viewBox="0 0 32 32">
      <path d="M13.79 21.155c-.839 4.397-1.863 8.612-4.897 10.814-.937-6.646 1.375-11.637 2.448-16.936-1.831-3.081.22-9.281 4.08-7.754 4.75 1.879-4.113 11.455 1.836 12.651 6.213 1.248 8.749-10.78 4.897-14.691C16.588-.409 5.951 5.11 7.259 13.197c.318 1.977 2.36 2.576.816 5.305-3.563-.791-4.625-3.6-4.489-7.346C3.807 5.024 9.095.732 14.4.138 21.109-.613 27.405 2.6 28.274 8.912c.979 7.124-3.028 14.838-10.202 14.283-1.945-.151-2.761-1.115-4.285-2.041z"/>
    </symbol>
    <symbol id="twitter" viewBox="0 0 32 32">
      <path d="M10.064 28.8c12.075 0 18.68-9.85 18.68-18.391 0-.28 0-.559-.019-.836A13.216 13.216 0 0 0 32 6.227a13.265 13.265 0 0 1-3.77 1.018 6.509 6.509 0 0 0 2.886-3.576 13.281 13.281 0 0 1-4.17 1.569c-2.486-2.602-6.645-2.728-9.29-.28a6.408 6.408 0 0 0-1.899 6.177C10.479 10.874 5.56 8.419 2.226 4.382.484 7.336 1.375 11.113 4.26 13.01a6.596 6.596 0 0 1-2.981-.808v.082c.002 3.076 2.205 5.726 5.267 6.336a6.621 6.621 0 0 1-2.963.11c.859 2.634 3.325 4.438 6.133 4.49a13.3 13.3 0 0 1-9.717 2.679 18.8 18.8 0 0 0 10.064 2.898z"/>
    </symbol>

    <!-- burger -->
    <symbol id="burger" viewBox="0 0 32 32">
      <path stroke-linecap="round" stroke-linejoin="round" stroke-width="2" d="M28 13.333H4M28 8H4M28 18.667H4M28 24H4"/>
    </symbol>
     <symbol id="close" viewBox="0 0 32 32">
      <path stroke-linecap="round" stroke-linejoin="round" stroke-width="2.4" d="M24 8 8 24M8 8l16 16"/>
    </symbol>

    <!-- others -->
    <symbol id="envelope" viewBox="0 0 32 32">
      <path d="M23.5 8.32H8.38a2.85 2.85 0 0 0-2.84 2.84v9.64a2.85 2.85 0 0 0 2.84 2.84H23.5a2.85 2.85 0 0 0 2.84-2.84v-9.64c0-1.56-1.24-2.84-2.84-2.84zM8.38 10H23.5c.64 0 1.16.52 1.16 1.16v.4l-8.04 5.6c-.36.24-1.04.24-1.4 0l-8.04-5.6v-.4c.04-.64.56-1.16 1.2-1.16zM23.5 22H8.38c-.64 0-1.16-.52-1.16-1.16V13.6l7.08 4.92c.48.32 1.08.48 1.68.48s1.2-.16 1.68-.48l7.04-4.92v7.2c0 .68-.56 1.2-1.2 1.2z"/>
    </symbol>

    <symbol id="mobile" viewBox="0 0 32 32">
      <path d="M21.333 4.333H10.666a2.344 2.344 0 0 0-2.333 2.333v18.667a2.344 2.344 0 0 0 2.333 2.333h10.667a2.344 2.344 0 0 0 2.333-2.333V6.666a2.344 2.344 0 0 0-2.333-2.333zm.334 21a.33.33 0 0 1-.333.333H10.667a.33.33 0 0 1-.333-.333V6.666a.33.33 0 0 1 .333-.333h10.667a.33.33 0 0 1 .333.333v18.667zm-4.334-4c0 .733-.6 1.333-1.333 1.333s-1.333-.6-1.333-1.333S15.267 20 16 20s1.333.6 1.333 1.333z"/>
    </symbol>

    <symbol id="chevron-down" viewBox="0 0 32 32">
      <path stroke-linecap="round" stroke-linejoin="round" stroke-width="3.2" d="m8 12 8 8 8-8"/>
    </symbol>

    <symbol id="quotes" viewBox="0 0 32 32">
<path d="M6.111 23.095c-1.373-1.459-2.111-3.095-2.111-5.747 0-4.667 3.276-8.849 8.040-10.917l1.191 1.837c-4.447 2.405-5.316 5.527-5.663 7.495 0.716-0.371 1.653-0.5 2.572-0.415 2.405 0.223 4.301 2.197 4.301 4.652 0 2.577-2.089 4.667-4.667 4.667v0c-1.431 0-2.799-0.653-3.664-1.572zM19.444 23.095c-1.373-1.459-2.111-3.095-2.111-5.747 0-4.667 3.276-8.849 8.040-10.917l1.191 1.837c-4.447 2.405-5.316 5.527-5.663 7.495 0.716-0.371 1.653-0.5 2.572-0.415 2.405 0.223 4.301 2.197 4.301 4.652 0 2.577-2.089 4.667-4.667 4.667v0c-1.431 0-2.799-0.653-3.664-1.572z"></path>
</symbol>

<symbol id="filter" viewBox="0 0 32 32">
<path d="M27.867 5.333h-13.4c-0.601-1.552-2.070-2.639-3.797-2.667l-0.003-0c-1.716 0.017-3.172 1.112-3.725 2.639l-0.009 0.028h-2.8c-0.020-0.001-0.044-0.002-0.068-0.002-0.75 0-1.363 0.59-1.398 1.332l-0 0.003c0.036 0.745 0.648 1.335 1.398 1.335 0.024 0 0.048-0.001 0.072-0.002l-0.003 0h2.8c0.561 1.555 2.017 2.65 3.731 2.667l0.002 0c1.73-0.028 3.199-1.114 3.79-2.638l0.010-0.028h13.4c0.020 0.001 0.044 0.002 0.068 0.002 0.75 0 1.363-0.59 1.398-1.332l0-0.003c-0.036-0.745-0.648-1.335-1.398-1.335-0.024 0-0.048 0.001-0.072 0.002l0.003-0zM10.667 8c-0.736 0-1.333-0.597-1.333-1.333s0.597-1.333 1.333-1.333c0.736 0 1.333 0.597 1.333 1.333v0c0 0.736-0.597 1.333-1.333 1.333v0z"></path>
<path d="M27.867 14.667h-2.733c-0.601-1.552-2.070-2.639-3.797-2.667l-0.003-0c-1.716 0.017-3.172 1.112-3.725 2.639l-0.009 0.028h-13.467c-0.736 0-1.333 0.597-1.333 1.333s0.597 1.333 1.333 1.333v0h13.467c0.561 1.555 2.017 2.65 3.731 2.667l0.002 0c1.73-0.028 3.199-1.114 3.79-2.638l0.010-0.028h2.733c0.736 0 1.333-0.597 1.333-1.333s-0.597-1.333-1.333-1.333v0zM21.333 17.333c-0.736 0-1.333-0.597-1.333-1.333s0.597-1.333 1.333-1.333c0.736 0 1.333 0.597 1.333 1.333v0c0 0.736-0.597 1.333-1.333 1.333v0z"></path>
<path d="M27.867 24h-11.4c-0.601-1.552-2.070-2.639-3.797-2.667l-0.003-0c-1.716 0.017-3.172 1.112-3.725 2.639l-0.009 0.028h-4.8c-0.736 0-1.333 0.597-1.333 1.333s0.597 1.333 1.333 1.333v0h4.8c0.561 1.555 2.017 2.65 3.731 2.667l0.002 0c1.73-0.028 3.199-1.114 3.79-2.638l0.010-0.028h11.4c0.736 0 1.333-0.597 1.333-1.333s-0.597-1.333-1.333-1.333v0zM12.667 26.667c-0.736 0-1.333-0.597-1.333-1.333s0.597-1.333 1.333-1.333c0.736 0 1.333 0.597 1.333 1.333v0c0 0.736-0.597 1.333-1.333 1.333v0z"></path>
</symbol>

<symbol id="search" viewBox="0 0 32 32">
<path stroke-linejoin="round" stroke-linecap="round" stroke-miterlimit="4" stroke-width="2.88" d="M14.667 25.333c5.891 0 10.667-4.776 10.667-10.667s-4.776-10.667-10.667-10.667c-5.891 0-10.667 4.776-10.667 10.667s4.776 10.667 10.667 10.667z"></path>
<path stroke-linejoin="round" stroke-linecap="round" stroke-miterlimit="4" stroke-width="2.88" d="M28 28l-5.8-5.8"></path>
</symbol>
    
  </defs>
</svg>